<svg width="21" height="21" viewBox="0 0 21 21" fill="none" xmlns="http://www.w3.org/2000/svg">
<path d="M18.7222 5.17371L18.34 4.95305C18.3848 4.71561 18.3848 4.47189 18.34 4.23445L18.7222 4.01379C18.873 3.92676 18.983 3.78341 19.0281 3.61527C19.0732 3.44712 19.0496 3.26796 18.9626 3.11719C18.8756 2.96642 18.7322 2.85639 18.5641 2.81132C18.3959 2.76624 18.2168 2.78981 18.066 2.87684L17.6829 3.09832C17.4996 2.94103 17.2888 2.81895 17.0611 2.7382V2.29688C17.0611 2.12283 16.992 1.95591 16.8689 1.83284C16.7458 1.70977 16.5789 1.64063 16.4049 1.64062C16.2308 1.64063 16.0639 1.70977 15.9408 1.83284C15.8177 1.95591 15.7486 2.12283 15.7486 2.29688V2.7382C15.5209 2.81895 15.3101 2.94103 15.1268 3.09832L14.7437 2.87684C14.6691 2.83375 14.5867 2.80578 14.5012 2.79454C14.4157 2.7833 14.3289 2.789 14.2456 2.81132C14.1624 2.83364 14.0843 2.87214 14.016 2.92462C13.9476 2.9771 13.8902 3.04253 13.8471 3.11719C13.804 3.19184 13.7761 3.27425 13.7648 3.35971C13.7536 3.44517 13.7593 3.53201 13.7816 3.61527C13.8039 3.69852 13.8424 3.77657 13.8949 3.84495C13.9474 3.91333 14.0128 3.9707 14.0875 4.01379L14.4697 4.23445C14.4249 4.47189 14.4249 4.71561 14.4697 4.95305L14.0875 5.17371C13.9623 5.24591 13.8644 5.35741 13.8091 5.49091C13.7538 5.6244 13.744 5.77243 13.7814 5.91202C13.8188 6.05161 13.9013 6.17495 14.0159 6.2629C14.1306 6.35085 14.2711 6.39849 14.4156 6.39844C14.5308 6.39879 14.6441 6.3685 14.7437 6.31066L15.1268 6.08918C15.3101 6.24647 15.5209 6.36856 15.7486 6.4493V6.89062C15.7486 7.06467 15.8177 7.23159 15.9408 7.35466C16.0639 7.47773 16.2308 7.54688 16.4049 7.54688C16.5789 7.54688 16.7458 7.47773 16.8689 7.35466C16.992 7.23159 17.0611 7.06467 17.0611 6.89062V6.4493C17.2888 6.36856 17.4996 6.24647 17.6829 6.08918L18.066 6.31066C18.1656 6.3685 18.2789 6.39879 18.3941 6.39844C18.5386 6.39849 18.6791 6.35085 18.7938 6.2629C18.9084 6.17495 18.9909 6.05161 19.0283 5.91202C19.0657 5.77243 19.0559 5.6244 19.0006 5.49091C18.9453 5.35741 18.8474 5.24591 18.7222 5.17371ZM15.7486 4.59375C15.7486 4.46396 15.7871 4.33708 15.8592 4.22916C15.9313 4.12124 16.0338 4.03712 16.1537 3.98745C16.2736 3.93778 16.4056 3.92479 16.5329 3.95011C16.6602 3.97543 16.7771 4.03793 16.8689 4.12971C16.9607 4.22149 17.0232 4.33842 17.0485 4.46572C17.0738 4.59302 17.0608 4.72497 17.0111 4.84489C16.9615 4.9648 16.8774 5.06729 16.7694 5.1394C16.6615 5.21151 16.5346 5.25 16.4049 5.25C16.2308 5.25 16.0639 5.18086 15.9408 5.05779C15.8177 4.93472 15.7486 4.7678 15.7486 4.59375ZM18.1562 8.54027C17.9846 8.569 17.8314 8.66473 17.7303 8.80642C17.6292 8.9481 17.5886 9.12413 17.6173 9.29578C17.6839 9.69373 17.7174 10.0965 17.7174 10.5C17.7189 12.2671 17.0694 13.9729 15.893 15.2914C15.1611 14.2308 14.1319 13.4103 12.9349 12.933C13.5779 12.4266 14.0471 11.7324 14.2772 10.947C14.5074 10.1615 14.487 9.32391 14.2191 8.55056C13.9511 7.77722 13.4488 7.1066 12.782 6.63197C12.1152 6.15734 11.3171 5.90229 10.4986 5.90229C9.68014 5.90229 8.88202 6.15734 8.21523 6.63197C7.54844 7.1066 7.04613 7.77722 6.77815 8.55056C6.51016 9.32391 6.48983 10.1615 6.71997 10.947C6.95012 11.7324 7.4193 12.4266 8.06227 12.933C6.86529 13.4103 5.83614 14.2308 5.10423 15.2914C4.18115 14.2513 3.57818 12.9666 3.36783 11.5919C3.15747 10.2172 3.3487 8.81096 3.9185 7.54234C4.4883 6.27372 5.41242 5.19669 6.57974 4.44077C7.74707 3.68484 9.1079 3.2822 10.4986 3.28125C10.9021 3.28119 11.3049 3.31466 11.7028 3.38133C11.8737 3.40829 12.0483 3.36669 12.1887 3.26557C12.3291 3.16446 12.4238 3.01201 12.4524 2.84138C12.4809 2.67076 12.4409 2.49577 12.3411 2.35447C12.2413 2.21317 12.0897 2.117 11.9194 2.08688C10.1372 1.78706 8.30586 2.06139 6.68976 2.87025C5.07365 3.67911 3.75642 4.98065 2.92825 6.58694C2.10008 8.19324 1.80383 10.0212 2.08226 11.8068C2.36069 13.5924 3.1994 15.2434 4.4773 16.5213C5.7552 17.7992 7.40615 18.6379 9.1918 18.9163C10.9774 19.1948 12.8054 18.8985 14.4117 18.0703C16.018 17.2422 17.3195 15.9249 18.1283 14.3088C18.9372 12.6927 19.2115 10.8614 18.9117 9.07922C18.883 8.90757 18.7873 8.75436 18.6456 8.65329C18.5039 8.55221 18.3279 8.51156 18.1562 8.54027ZM7.8736 9.84375C7.8736 9.32457 8.02756 8.81706 8.316 8.38538C8.60443 7.9537 9.0144 7.61725 9.49406 7.41857C9.97371 7.21989 10.5015 7.1679 11.0107 7.26919C11.5199 7.37047 11.9876 7.62048 12.3548 7.98759C12.7219 8.35471 12.9719 8.82244 13.0732 9.33164C13.1744 9.84084 13.1225 10.3686 12.9238 10.8483C12.7251 11.3279 12.3887 11.7379 11.957 12.0264C11.5253 12.3148 11.0178 12.4688 10.4986 12.4688C9.80241 12.4688 9.13473 12.1922 8.64245 11.6999C8.15016 11.2076 7.8736 10.5399 7.8736 9.84375ZM6.07548 16.2012C6.55022 15.4587 7.20423 14.8477 7.97723 14.4244C8.75022 14.0012 9.61732 13.7793 10.4986 13.7793C11.3799 13.7793 12.247 14.0012 13.02 14.4244C13.793 14.8477 14.447 15.4587 14.9217 16.2012C13.6571 17.1847 12.1007 17.7187 10.4986 17.7187C8.89651 17.7187 7.34012 17.1847 6.07548 16.2012Z" fill="black"/>
</svg>
