<svg width="145" height="93" viewBox="0 0 145 93" fill="none" xmlns="http://www.w3.org/2000/svg">
<rect width="144.469" height="92.5213" rx="9.41548" fill="#73787C"/>
<mask id="mask0_1548_6659" style="mask-type:alpha" maskUnits="userSpaceOnUse" x="0" y="0" width="145" height="93">
<rect width="144.469" height="92.5213" rx="9.41548" fill="white"/>
</mask>
<g mask="url(#mask0_1548_6659)">
<path d="M31.9894 47.1265C29.4751 47.1265 27.6225 46.342 26.4315 44.7729C25.2594 43.2038 24.6733 41.0203 24.6733 38.2224V24.129C24.6733 21.3122 25.2594 19.1287 26.4315 17.5785C27.6225 16.0094 29.4751 15.2249 31.9894 15.2249C34.5038 15.2249 36.3564 16.0094 37.5474 17.5785C38.7573 19.1476 39.3623 21.3311 39.3623 24.129V26.5677H33.6342V23.3917C33.6342 22.5221 33.5207 21.7943 33.2939 21.2082C33.067 20.6222 32.6322 20.3292 31.9894 20.3292C31.3467 20.3292 30.9213 20.6316 30.7134 21.2366C30.5054 21.8226 30.4015 22.541 30.4015 23.3917V38.9597C30.4015 39.8104 30.5054 40.5382 30.7134 41.1432C30.9213 41.7292 31.3467 42.0223 31.9894 42.0223C32.6322 42.0223 33.067 41.7292 33.2939 41.1432C33.5207 40.5572 33.6342 39.8293 33.6342 38.9597V35.7837H39.3623V38.2224C39.3623 41.0203 38.7573 43.2038 37.5474 44.7729C36.3564 46.342 34.5038 47.1265 31.9894 47.1265ZM42.1882 46.7012V5.01638H47.9163V46.7012H42.1882ZM55.4952 47.1549C54.1719 47.1549 53.0281 46.4838 52.064 45.1415C51.0999 43.7993 50.6178 41.7481 50.6178 38.9881C50.6178 36.3225 51.1849 34.1768 52.3192 32.551C53.4724 30.9252 55.1927 29.5168 57.4802 28.3258C58.1986 27.9477 58.8035 27.6075 59.295 27.305C59.7865 27.0025 60.089 26.7189 60.2025 26.4543V23.0514C60.2025 22.2763 60.1079 21.6147 59.9189 21.0664C59.7487 20.4993 59.3139 20.2157 58.6145 20.2157C57.9717 20.2157 57.5369 20.5182 57.31 21.1232C57.0832 21.7092 56.9698 22.4465 56.9698 23.335V24.8096H51.2416V23.5051C51.2416 21.8037 51.5725 20.3386 52.2341 19.1098C52.9147 17.8621 53.8316 16.9074 54.9848 16.2458C56.1569 15.5652 57.4802 15.2249 58.9547 15.2249C60.3726 15.2249 61.6014 15.5557 62.6412 16.2174C63.6809 16.8602 64.4844 17.7581 65.0515 18.9113C65.6375 20.0456 65.9306 21.35 65.9306 22.8246V41.3133C65.9306 42.6934 65.9684 43.7709 66.044 44.546C66.1196 45.3022 66.2141 46.0206 66.3276 46.7012H60.7129C60.4671 46.3987 60.3159 45.9544 60.2592 45.3684C60.2214 44.7823 60.2025 44.3948 60.2025 44.2058H59.8055C59.3328 45.0754 58.7279 45.7843 57.9906 46.3325C57.2722 46.8808 56.4404 47.1549 55.4952 47.1549ZM57.8205 41.5402C58.4821 41.5402 59.0398 41.3133 59.4935 40.8596C59.9661 40.4059 60.2025 39.9144 60.2025 39.3851V32.0122C58.8224 32.5983 57.811 33.4868 57.1683 34.6778C56.5444 35.8499 56.2325 37.1732 56.2325 38.6478C56.2325 39.2905 56.3554 39.9333 56.6011 40.5761C56.8469 41.2188 57.2533 41.5402 57.8205 41.5402ZM76.5835 47.1549C75.2413 47.1549 74.0692 46.928 73.0672 46.4743C72.0653 46.0206 71.2335 45.3778 70.5718 44.546C69.9101 43.6953 69.4092 42.6934 69.0689 41.5402C68.7475 40.387 68.5868 39.1015 68.5868 37.6836H73.9179C73.9179 38.9503 74.1164 40.0562 74.5134 41.0014C74.9293 41.9277 75.6194 42.3909 76.5835 42.3909C77.4153 42.3909 77.9541 42.0412 78.1998 41.3417C78.4456 40.6422 78.5685 39.8388 78.5685 38.9314C78.5685 37.8727 78.1526 36.7951 77.3208 35.6987C76.5079 34.5833 75.6572 33.5908 74.7686 32.7212C73.2374 31.2088 71.9613 29.7153 70.9404 28.2408C69.9385 26.7662 69.4375 25.0364 69.4375 23.0514C69.4375 20.7073 70.0519 18.8168 71.2807 17.38C72.5095 15.9433 74.2582 15.2249 76.5268 15.2249C77.8879 15.2249 79.0316 15.4045 79.958 15.7637C80.9032 16.1229 81.6594 16.6617 82.2265 17.38C82.7937 18.0984 83.2001 18.9775 83.4459 20.0172C83.7106 21.057 83.8429 22.2574 83.8429 23.6186H78.5118C78.5118 22.6355 78.4078 21.7848 78.1998 21.0664C77.9919 20.3481 77.472 19.9889 76.6402 19.9889C75.9596 19.9889 75.4776 20.2819 75.194 20.8679C74.9104 21.4351 74.7686 22.1629 74.7686 23.0514C74.7686 24.0912 75.0144 25.0175 75.5059 25.8304C76.0164 26.6244 76.8576 27.598 78.0297 28.7512C79.5043 30.1879 80.8465 31.7192 82.0564 33.345C83.2852 34.9708 83.8996 36.7384 83.8996 38.6478C83.8996 39.8955 83.7295 41.0392 83.3892 42.079C83.0678 43.1187 82.5857 44.0167 81.943 44.7729C81.3191 45.5291 80.5535 46.1151 79.646 46.531C78.7575 46.9469 77.7367 47.1549 76.5835 47.1549ZM93.5866 47.1549C92.2444 47.1549 91.0723 46.928 90.0704 46.4743C89.0684 46.0206 88.2366 45.3778 87.5749 44.546C86.9133 43.6953 86.4123 42.6934 86.072 41.5402C85.7506 40.387 85.5899 39.1015 85.5899 37.6836H90.9211C90.9211 38.9503 91.1196 40.0562 91.5166 41.0014C91.9325 41.9277 92.6225 42.3909 93.5866 42.3909C94.4184 42.3909 94.9572 42.0412 95.203 41.3417C95.4487 40.6422 95.5716 39.8388 95.5716 38.9314C95.5716 37.8727 95.1557 36.7951 94.3239 35.6987C93.511 34.5833 92.6603 33.5908 91.7718 32.7212C90.2405 31.2088 88.9644 29.7153 87.9436 28.2408C86.9416 26.7662 86.4407 25.0364 86.4407 23.0514C86.4407 20.7073 87.0551 18.8168 88.2839 17.38C89.5127 15.9433 91.2613 15.2249 93.5299 15.2249C94.891 15.2249 96.0348 15.4045 96.9611 15.7637C97.9063 16.1229 98.6625 16.6617 99.2297 17.38C99.7968 18.0984 100.203 18.9775 100.449 20.0172C100.714 21.057 100.846 22.2574 100.846 23.6186H95.5149C95.5149 22.6355 95.4109 21.7848 95.203 21.0664C94.995 20.3481 94.4751 19.9889 93.6433 19.9889C92.9628 19.9889 92.4807 20.2819 92.1971 20.8679C91.9136 21.4351 91.7718 22.1629 91.7718 23.0514C91.7718 24.0912 92.0175 25.0175 92.5091 25.8304C93.0195 26.6244 93.8607 27.598 95.0328 28.7512C96.5074 30.1879 97.8496 31.7192 99.0595 33.345C100.288 34.9708 100.903 36.7384 100.903 38.6478C100.903 39.8955 100.733 41.0392 100.392 42.079C100.071 43.1187 99.5889 44.0167 98.9461 44.7729C98.3222 45.5291 97.5566 46.1151 96.6492 46.531C95.7607 46.9469 94.7398 47.1549 93.5866 47.1549ZM103.444 46.7012V15.6786H109.172V46.7012H103.444ZM103.444 10.7445V5.01638H109.172V10.7445H103.444ZM119.331 47.1265C116.817 47.1265 114.964 46.342 113.773 44.7729C112.601 43.2038 112.015 41.0203 112.015 38.2224V24.129C112.015 21.3122 112.601 19.1287 113.773 17.5785C114.964 16.0094 116.817 15.2249 119.331 15.2249C121.846 15.2249 123.698 16.0094 124.889 17.5785C126.099 19.1476 126.704 21.3311 126.704 24.129V26.5677H120.976V23.3917C120.976 22.5221 120.863 21.7943 120.636 21.2082C120.409 20.6222 119.974 20.3292 119.331 20.3292C118.688 20.3292 118.263 20.6316 118.055 21.2366C117.847 21.8226 117.743 22.541 117.743 23.3917V38.9597C117.743 39.8104 117.847 40.5382 118.055 41.1432C118.263 41.7292 118.688 42.0223 119.331 42.0223C119.974 42.0223 120.409 41.7292 120.636 41.1432C120.863 40.5572 120.976 39.8293 120.976 38.9597V35.7837H126.704V38.2224C126.704 41.0203 126.099 43.2038 124.889 44.7729C123.698 46.342 121.846 47.1265 119.331 47.1265Z" fill="#F8E5C1"/>
<path fill-rule="evenodd" clip-rule="evenodd" d="M12.3813 52.4504C23.2369 51.908 34.4122 55.8783 40.5886 63.7004C46.389 71.0464 44.17 80.5633 41.3538 89.1429C38.784 96.9719 34.3642 104.492 26.013 108.105C17.5609 111.762 7.7201 110.817 -0.866087 107.408C-9.73422 103.886 -17.7639 98.1093 -20.0195 89.8269C-22.2964 81.4661 -17.9909 73.1806 -12.0528 66.3306C-5.88082 59.2108 2.17831 52.9602 12.3813 52.4504Z" fill="#C5C6C8"/>
<path fill-rule="evenodd" clip-rule="evenodd" d="M82.7878 33.574C99.8093 34.2456 114.844 41.723 126.007 52.9749C137.886 64.9481 148.074 79.8706 144.052 95.3241C140.027 110.786 123.801 121.145 106.813 126.709C91.7118 131.655 75.9752 127.905 61.0819 122.499C44.6268 116.526 26.182 110.312 20.7657 95.4753C14.957 79.5631 21.7927 61.9248 34.3823 49.3598C46.3197 37.4456 64.6875 32.8598 82.7878 33.574Z" fill="#D7E5F0"/>
<path fill-rule="evenodd" clip-rule="evenodd" d="M145.13 -22.2361C154.551 -21.5229 161.48 -14.8147 167.406 -7.81441C173.381 -0.757639 179.232 7.19978 177.609 16.1269C175.902 25.5239 168.225 32.7035 159.264 36.9865C150.089 41.3724 139.369 42.9575 130.047 38.8612C120.558 34.692 114.406 25.9406 112.075 16.2519C109.742 6.5561 111.297 -3.85723 117.913 -11.561C124.444 -19.1653 134.838 -23.0152 145.13 -22.2361Z" stroke="#C5C6C8" stroke-width="1.8831"/>
</g>
<ellipse cx="89.924" cy="61.4215" rx="8.35364" ry="7.30185" fill="#F8E5C1"/>
<mask id="mask1_1548_6659" style="mask-type:alpha" maskUnits="userSpaceOnUse" x="81" y="54" width="18" height="15">
<ellipse cx="89.924" cy="61.4215" rx="8.35364" ry="7.30185" fill="#F8E5C2"/>
</mask>
<g mask="url(#mask1_1548_6659)">
<ellipse cx="94.8389" cy="57.1261" rx="5.4053" ry="4.72472" fill="url(#paint0_linear_1548_6659)"/>
</g>
<ellipse cx="59.4591" cy="61.4215" rx="8.35364" ry="7.30185" fill="#F8E5C1"/>
<mask id="mask2_1548_6659" style="mask-type:alpha" maskUnits="userSpaceOnUse" x="51" y="54" width="17" height="15">
<ellipse cx="59.4591" cy="61.4215" rx="8.35364" ry="7.30185" fill="#C5C6C8"/>
</mask>
<g mask="url(#mask2_1548_6659)">
<ellipse cx="64.3721" cy="57.1261" rx="5.4053" ry="4.72472" fill="black"/>
</g>
<circle cx="119.407" cy="68.3644" r="2.45621" fill="#C5C6C8"/>
<circle cx="128.249" cy="68.3644" r="2.45621" fill="#C5C6C8"/>
<circle cx="137.093" cy="68.3644" r="2.45621" fill="#C5C6C8"/>
<circle cx="119.407" cy="76.1017" r="2.45621" fill="#C5C6C8"/>
<circle cx="128.249" cy="76.1017" r="2.45621" fill="#C5C6C8"/>
<circle cx="137.093" cy="76.1017" r="2.45621" fill="#C5C6C8"/>
<defs>
<linearGradient id="paint0_linear_1548_6659" x1="94.8389" y1="52.4014" x2="94.8389" y2="61.8508" gradientUnits="userSpaceOnUse">
<stop/>
<stop offset="1" stop-color="#666666"/>
</linearGradient>
</defs>
</svg>
