<svg width="19" height="19" viewBox="0 0 19 19" fill="none" xmlns="http://www.w3.org/2000/svg">
<rect width="19" height="19" rx="3.8" fill="black"/>
<path d="M14.7994 9.39658C14.7994 9.55472 14.7366 9.70639 14.6247 9.81821C14.5129 9.93004 14.3612 9.99286 14.2031 9.99286H5.45761C5.29947 9.99286 5.1478 9.93004 5.03598 9.81821C4.92415 9.70639 4.86133 9.55472 4.86133 9.39658C4.86133 9.23843 4.92415 9.08676 5.03598 8.97494C5.1478 8.86312 5.29947 8.80029 5.45761 8.80029H14.2031C14.3612 8.80029 14.5129 8.86312 14.6247 8.97494C14.7366 9.08676 14.7994 9.23843 14.7994 9.39658ZM5.45761 6.81268H14.2031C14.3612 6.81268 14.5129 6.74986 14.6247 6.63804C14.7366 6.52621 14.7994 6.37454 14.7994 6.2164C14.7994 6.05826 14.7366 5.90659 14.6247 5.79476C14.5129 5.68294 14.3612 5.62012 14.2031 5.62012H5.45761C5.29947 5.62012 5.1478 5.68294 5.03598 5.79476C4.92415 5.90659 4.86133 6.05826 4.86133 6.2164C4.86133 6.37454 4.92415 6.52621 5.03598 6.63804C5.1478 6.74986 5.29947 6.81268 5.45761 6.81268ZM14.2031 11.9805H5.45761C5.29947 11.9805 5.1478 12.0433 5.03598 12.1551C4.92415 12.2669 4.86133 12.4186 4.86133 12.5768C4.86133 12.7349 4.92415 12.8866 5.03598 12.9984C5.1478 13.1102 5.29947 13.173 5.45761 13.173H14.2031C14.3612 13.173 14.5129 13.1102 14.6247 12.9984C14.7366 12.8866 14.7994 12.7349 14.7994 12.5768C14.7994 12.4186 14.7366 12.2669 14.6247 12.1551C14.5129 12.0433 14.3612 11.9805 14.2031 11.9805Z" fill="white"/>
</svg>
