<svg width="19" height="19" viewBox="0 0 19 19" fill="none" xmlns="http://www.w3.org/2000/svg">
<rect width="19" height="19" rx="3.12766" fill="black"/>
<g clip-path="url(#clip0_4116_4940)">
<path d="M9.50042 4.41797C8.4952 4.41797 7.51257 4.71605 6.67676 5.27452C5.84096 5.83298 5.18953 6.62675 4.80485 7.55545C4.42017 8.48414 4.31952 9.50605 4.51563 10.492C4.71174 11.4778 5.19579 12.3835 5.90659 13.0942C6.61738 13.805 7.52298 14.2891 8.50888 14.4852C9.49478 14.6813 10.5167 14.5807 11.4454 14.196C12.3741 13.8113 13.1679 13.1599 13.7263 12.3241C14.2848 11.4883 14.5829 10.5056 14.5829 9.50042C14.5812 8.15298 14.0452 6.86122 13.0924 5.90844C12.1396 4.95566 10.8479 4.41965 9.50042 4.41797ZM11.4552 9.89137H9.89138V11.4552C9.89138 11.5589 9.85019 11.6583 9.77687 11.7317C9.70355 11.805 9.60411 11.8462 9.50042 11.8462C9.39673 11.8462 9.29729 11.805 9.22397 11.7317C9.15065 11.6583 9.10946 11.5589 9.10946 11.4552V9.89137H7.54563C7.44194 9.89137 7.3425 9.85018 7.26918 9.77686C7.19586 9.70355 7.15467 9.6041 7.15467 9.50042C7.15467 9.39673 7.19586 9.29729 7.26918 9.22397C7.3425 9.15065 7.44194 9.10946 7.54563 9.10946H9.10946V7.54563C9.10946 7.44194 9.15065 7.3425 9.22397 7.26918C9.29729 7.19586 9.39673 7.15467 9.50042 7.15467C9.60411 7.15467 9.70355 7.19586 9.77687 7.26918C9.85019 7.3425 9.89138 7.44194 9.89138 7.54563V9.10946H11.4552C11.5589 9.10946 11.6583 9.15065 11.7317 9.22397C11.805 9.29729 11.8462 9.39673 11.8462 9.50042C11.8462 9.6041 11.805 9.70355 11.7317 9.77686C11.6583 9.85018 11.5589 9.89137 11.4552 9.89137Z" fill="white"/>
</g>
<defs>
<clipPath id="clip0_4116_4940">
<rect width="12.5106" height="12.5106" fill="white" transform="translate(3.24414 3.24512)"/>
</clipPath>
</defs>
</svg>
