<svg width="24" height="24" viewBox="0 0 24 24" fill="none" xmlns="http://www.w3.org/2000/svg">
<path d="M21.2581 6.46813C21.2126 6.35569 21.1405 6.25595 21.048 6.17749C20.9555 6.09902 20.8453 6.04416 20.727 6.01761C20.6086 5.99106 20.4856 5.99362 20.3684 6.02506C20.2513 6.0565 20.1435 6.11589 20.0543 6.19813L16.2762 9.68469L14.6609 9.33782L14.314 7.72251L17.8006 3.94438C17.8828 3.85522 17.9422 3.74744 17.9736 3.63028C18.0051 3.51313 18.0076 3.39009 17.9811 3.27174C17.9545 3.15338 17.8997 3.04322 17.8212 2.95072C17.7428 2.85822 17.643 2.78613 17.5306 2.74063C16.5058 2.3261 15.395 2.16958 14.2956 2.28484C13.1962 2.40009 12.1419 2.78358 11.2254 3.40162C10.3089 4.01965 9.55822 4.85332 9.0393 5.82937C8.52038 6.80541 8.24911 7.89397 8.24933 8.99938C8.24811 9.93283 8.43961 10.8565 8.81183 11.7125L3.16714 16.5931C3.15308 16.6044 3.13995 16.6175 3.12683 16.6297C2.56415 17.1924 2.24805 17.9555 2.24805 18.7513C2.24805 19.1453 2.32565 19.5354 2.47643 19.8994C2.62722 20.2635 2.84822 20.5942 3.12683 20.8728C3.40543 21.1514 3.73619 21.3724 4.10021 21.5232C4.46423 21.674 4.85438 21.7516 5.24839 21.7516C6.04413 21.7516 6.80728 21.4355 7.36995 20.8728C7.38214 20.8606 7.39526 20.8466 7.40651 20.8334L12.2862 15.1869C13.3141 15.6381 14.4383 15.8258 15.5571 15.7331C16.6758 15.6403 17.7537 15.27 18.6933 14.6557C19.6329 14.0413 20.4044 13.2024 20.938 12.2147C21.4716 11.2271 21.7505 10.122 21.7493 8.99938C21.7508 8.1318 21.584 7.27218 21.2581 6.46813ZM14.9993 14.2494C14.1116 14.2482 13.2386 14.0224 12.4615 13.5931C12.311 13.51 12.1364 13.4811 11.9671 13.5113C11.7978 13.5415 11.644 13.629 11.5315 13.7591L6.29089 19.8284C6.0073 20.0979 5.62967 20.2459 5.23853 20.2409C4.84739 20.2358 4.47367 20.0782 4.19707 19.8016C3.92047 19.525 3.76286 19.1513 3.75785 18.7602C3.75285 18.369 3.90083 17.9914 4.17026 17.7078L10.235 12.4681C10.3653 12.3556 10.4529 12.2016 10.4831 12.0321C10.5133 11.8626 10.4843 11.6878 10.4009 11.5372C9.92279 10.6725 9.69842 9.6904 9.75357 8.70386C9.80873 7.71732 10.1412 6.76637 10.7127 5.96034C11.2842 5.1543 12.0715 4.52591 12.9842 4.1474C13.8969 3.76888 14.8979 3.65562 15.8721 3.82063L12.9471 6.99032C12.8658 7.07861 12.8068 7.18514 12.7751 7.30097C12.7435 7.4168 12.7401 7.53854 12.7653 7.65594L13.2959 10.1244C13.3262 10.2656 13.3967 10.395 13.4988 10.4971C13.6009 10.5992 13.7303 10.6697 13.8715 10.7L16.3418 11.2306C16.4592 11.2558 16.581 11.2524 16.6968 11.2208C16.8126 11.1891 16.9192 11.1301 17.0075 11.0488L20.1771 8.12376C20.3035 8.87658 20.2644 9.64789 20.0624 10.384C19.8605 11.1202 19.5006 11.8035 19.0078 12.3865C18.5151 12.9695 17.9012 13.4382 17.209 13.7599C16.5167 14.0816 15.7627 14.2486 14.9993 14.2494Z" fill="black"/>
</svg>
