<svg width="19" height="16" viewBox="0 0 19 16" fill="none" xmlns="http://www.w3.org/2000/svg">
<path d="M17.25 0H1.4375C1.05625 0 0.690617 0.15145 0.421034 0.421034C0.15145 0.690617 0 1.05625 0 1.4375V14.375C0 14.7562 0.15145 15.1219 0.421034 15.3915C0.690617 15.661 1.05625 15.8125 1.4375 15.8125H2.64051C2.77654 15.8125 2.90979 15.774 3.02477 15.7013C3.13976 15.6286 3.23176 15.5248 3.29008 15.4019C3.63959 14.664 4.1914 14.0405 4.88134 13.6038C5.57128 13.1672 6.371 12.9354 7.1875 12.9354C8.004 12.9354 8.80372 13.1672 9.49366 13.6038C10.1836 14.0405 10.7354 14.664 11.0849 15.4019C11.1432 15.5248 11.2352 15.6286 11.3502 15.7013C11.4652 15.774 11.5985 15.8125 11.7345 15.8125H17.25C17.6312 15.8125 17.9969 15.661 18.2665 15.3915C18.536 15.1219 18.6875 14.7562 18.6875 14.375V1.4375C18.6875 1.05625 18.536 0.690617 18.2665 0.421034C17.9969 0.15145 17.6312 0 17.25 0ZM5.03125 9.34375C5.03125 8.91728 5.15771 8.5004 5.39464 8.1458C5.63158 7.79121 5.96834 7.51484 6.36234 7.35163C6.75634 7.18843 7.18989 7.14573 7.60816 7.22893C8.02643 7.31213 8.41064 7.51749 8.7122 7.81905C9.01376 8.12061 9.21912 8.50481 9.30232 8.92309C9.38552 9.34136 9.34282 9.77491 9.17962 10.1689C9.01641 10.5629 8.74004 10.8997 8.38545 11.1366C8.03086 11.3735 7.61397 11.5 7.1875 11.5C6.61563 11.5 6.06718 11.2728 5.6628 10.8684C5.25843 10.4641 5.03125 9.91562 5.03125 9.34375ZM17.25 14.375H12.1675C11.5673 13.3431 10.6626 12.5221 9.57734 12.0247C10.1214 11.5402 10.5054 10.9019 10.6784 10.1942C10.8514 9.48652 10.8053 8.74298 10.5461 8.06214C10.2869 7.3813 9.82694 6.7953 9.22713 6.38184C8.62731 5.96838 7.91601 5.74697 7.1875 5.74697C6.45899 5.74697 5.74768 5.96838 5.14787 6.38184C4.54806 6.7953 4.08808 7.3813 3.82889 8.06214C3.5697 8.74298 3.52355 9.48652 3.69656 10.1942C3.86958 10.9019 4.25357 11.5402 4.79766 12.0247C3.71244 12.5221 2.80768 13.3431 2.20746 14.375H1.4375V1.4375H17.25V14.375ZM2.875 5.03125V3.59375C2.875 3.40313 2.95073 3.22031 3.08552 3.08552C3.22031 2.95073 3.40313 2.875 3.59375 2.875H15.0938C15.2844 2.875 15.4672 2.95073 15.602 3.08552C15.7368 3.22031 15.8125 3.40313 15.8125 3.59375V12.2188C15.8125 12.4094 15.7368 12.5922 15.602 12.727C15.4672 12.8618 15.2844 12.9375 15.0938 12.9375H13.6562C13.4656 12.9375 13.2828 12.8618 13.148 12.727C13.0132 12.5922 12.9375 12.4094 12.9375 12.2188C12.9375 12.0281 13.0132 11.8453 13.148 11.7105C13.2828 11.5757 13.4656 11.5 13.6562 11.5H14.375V4.3125H4.3125V5.03125C4.3125 5.22187 4.23677 5.40469 4.10198 5.53948C3.96719 5.67427 3.78437 5.75 3.59375 5.75C3.40313 5.75 3.22031 5.67427 3.08552 5.53948C2.95073 5.40469 2.875 5.22187 2.875 5.03125Z" fill="black"/>
</svg>
