<svg width="11" height="6" viewBox="0 0 11 6" fill="none" xmlns="http://www.w3.org/2000/svg">
<path d="M1.22723 0.193525C1.09251 0.0695143 0.909773 -0.000154018 0.719235 -0.000154018C0.528699 -0.000154018 0.345966 0.0695143 0.211236 0.193525C0.0765066 0.317536 0.000815392 0.485731 0.000815392 0.661108C0.000815392 0.836486 0.0765066 1.00468 0.211236 1.12869L4.99241 5.52948C5.05904 5.59102 5.13821 5.63985 5.22538 5.67316C5.31256 5.70648 5.40602 5.72363 5.50041 5.72363C5.5948 5.72363 5.68826 5.70648 5.77543 5.67316C5.86261 5.63985 5.94178 5.59102 6.00841 5.52948L10.7896 1.12869C10.9243 1.00468 11 0.836486 11 0.661108C11 0.485731 10.9243 0.317536 10.7896 0.193525C10.6548 0.0695143 10.4721 -0.000154018 10.2816 -0.000154018C10.091 -0.000154018 9.90831 0.0695143 9.77358 0.193525L5.50101 4.12618L1.22723 0.193525Z" fill="black"/>
</svg>
