<svg width="19" height="19" viewBox="0 0 19 19" fill="none" xmlns="http://www.w3.org/2000/svg">
<path d="M6.49586 14.8072C6.32855 14.9745 6.23455 15.2015 6.23455 15.4381C6.23455 15.6747 6.32855 15.9016 6.49586 16.0689C6.66317 16.2362 6.8901 16.3302 7.12672 16.3302C7.36334 16.3302 7.59026 16.2362 7.75758 16.0689L13.6951 10.1314C13.7781 10.0487 13.844 9.95037 13.8889 9.84211C13.9339 9.73385 13.957 9.61779 13.957 9.50057C13.957 9.38335 13.9339 9.26728 13.8889 9.15903C13.844 9.05077 13.7781 8.95245 13.6951 8.86971L7.75758 2.93221C7.59026 2.76489 7.36334 2.6709 7.12672 2.6709C6.8901 2.6709 6.66317 2.76489 6.49586 2.93221C6.32855 3.09952 6.23455 3.32645 6.23455 3.56307C6.23455 3.79969 6.32855 4.02661 6.49586 4.19393L11.8018 9.49983L6.49586 14.8072Z" fill="black"/>
</svg>
