<svg width="12" height="18" viewBox="0 0 12 18" fill="none" xmlns="http://www.w3.org/2000/svg">
<path d="M10.0155 7.23448L6.26552 3.48448C6.23069 3.44961 6.18934 3.42195 6.14381 3.40308C6.09829 3.38421 6.04949 3.3745 6.00021 3.3745C5.95093 3.3745 5.90213 3.38421 5.85661 3.40308C5.81108 3.42195 5.76972 3.44961 5.7349 3.48448L1.9849 7.23448C1.91453 7.30484 1.875 7.40028 1.875 7.49979C1.875 7.5993 1.91453 7.69474 1.9849 7.7651C2.05526 7.83547 2.1507 7.875 2.25021 7.875C2.34972 7.875 2.44516 7.83547 2.51552 7.7651L6.00021 4.27995L9.4849 7.7651C9.51974 7.79995 9.5611 7.82758 9.60662 7.84644C9.65214 7.8653 9.70094 7.875 9.75021 7.875C9.79948 7.875 9.84827 7.8653 9.8938 7.84644C9.93932 7.82758 9.98068 7.79995 10.0155 7.7651C10.0504 7.73026 10.078 7.6889 10.0969 7.64338C10.1157 7.59786 10.1254 7.54906 10.1254 7.49979C10.1254 7.45052 10.1157 7.40173 10.0969 7.35621C10.078 7.31068 10.0504 7.26932 10.0155 7.23448Z" fill="#B9B9B9"/>
<path d="M10.0155 10.7655L6.26552 14.5155C6.23069 14.5504 6.18934 14.578 6.14381 14.5969C6.09829 14.6158 6.04949 14.6255 6.00021 14.6255C5.95093 14.6255 5.90213 14.6158 5.85661 14.5969C5.81108 14.578 5.76972 14.5504 5.7349 14.5155L1.9849 10.7655C1.91453 10.6952 1.875 10.5997 1.875 10.5002C1.875 10.4007 1.91453 10.3053 1.9849 10.2349C2.05526 10.1645 2.1507 10.125 2.25021 10.125C2.34972 10.125 2.44516 10.1645 2.51552 10.2349L6.00021 13.7201L9.4849 10.2349C9.51974 10.2001 9.5611 10.1724 9.60662 10.1536C9.65214 10.1347 9.70094 10.125 9.75021 10.125C9.79948 10.125 9.84827 10.1347 9.8938 10.1536C9.93932 10.1724 9.98068 10.2001 10.0155 10.2349C10.0504 10.2697 10.078 10.3111 10.0969 10.3566C10.1157 10.4021 10.1254 10.4509 10.1254 10.5002C10.1254 10.5495 10.1157 10.5983 10.0969 10.6438C10.078 10.6893 10.0504 10.7307 10.0155 10.7655Z" fill="#B9B9B9"/>
</svg>
