<svg width="15" height="14" viewBox="0 0 15 14" fill="none" xmlns="http://www.w3.org/2000/svg">
<path d="M14.2488 12.6192C13.3383 11.0212 11.9166 9.77617 10.2126 9.08438C11.06 8.44882 11.686 7.56276 12.0018 6.55169C12.3176 5.54062 12.3073 4.45581 11.9724 3.45091C11.6374 2.44602 10.9948 1.57199 10.1354 0.952637C9.27614 0.333282 8.24374 0 7.18448 0C6.12523 0 5.09283 0.333282 4.23353 0.952637C3.37422 1.57199 2.73156 2.44602 2.3966 3.45091C2.06163 4.45581 2.05134 5.54062 2.36717 6.55169C2.68301 7.56276 3.30896 8.44882 4.15636 9.08438C2.45232 9.77617 1.03065 11.0212 0.120188 12.6192C0.0637731 12.7099 0.0261725 12.811 0.00962205 12.9166C-0.0069284 13.0221 -0.00209093 13.1299 0.023847 13.2335C0.0497849 13.3371 0.0962936 13.4345 0.160608 13.5198C0.224923 13.6051 0.305731 13.6766 0.398227 13.73C0.490724 13.7835 0.593021 13.8177 0.699038 13.8309C0.805054 13.844 0.912626 13.8356 1.01536 13.8064C1.11809 13.7771 1.21388 13.7274 1.29704 13.6604C1.38021 13.5933 1.44904 13.5102 1.49945 13.4161C2.70273 11.3362 4.82773 10.0957 7.18448 10.0957C9.54124 10.0957 11.6662 11.3369 12.8695 13.4161C12.9788 13.5917 13.152 13.718 13.3527 13.7682C13.5534 13.8185 13.7657 13.7887 13.9449 13.6852C14.124 13.5817 14.2558 13.4126 14.3125 13.2137C14.3693 13.0148 14.3464 12.8016 14.2488 12.6192ZM3.73136 5.04887C3.73136 4.3659 3.93388 3.69828 4.31332 3.13041C4.69275 2.56255 5.23206 2.11995 5.86303 1.8586C6.49401 1.59724 7.18832 1.52885 7.85816 1.66209C8.528 1.79533 9.14328 2.12421 9.62621 2.60714C10.1091 3.09007 10.438 3.70535 10.5713 4.3752C10.7045 5.04504 10.6361 5.73934 10.3748 6.37032C10.1134 7.0013 9.6708 7.5406 9.10294 7.92004C8.53507 8.29947 7.86745 8.50199 7.18448 8.50199C6.26898 8.50094 5.39128 8.13679 4.74392 7.48943C4.09656 6.84207 3.73241 5.96437 3.73136 5.04887Z" fill="black"/>
</svg>
