<svg width="29" height="30" viewBox="0 0 29 30" fill="none" xmlns="http://www.w3.org/2000/svg">
<path d="M27.1719 5.3125H21.9688V3.71875C21.9688 2.73248 21.5424 1.7866 20.7834 1.0892C20.0245 0.391796 18.9952 0 17.9219 0H10.9844C9.91108 0 8.88174 0.391796 8.1228 1.0892C7.36387 1.7866 6.9375 2.73248 6.9375 3.71875V5.3125H1.73438C1.27439 5.3125 0.833245 5.48041 0.507987 5.7793C0.182728 6.07818 0 6.48356 0 6.90625C0 7.32894 0.182728 7.73432 0.507987 8.0332C0.833245 8.33209 1.27439 8.5 1.73438 8.5H2.3125V26.5625C2.3125 27.267 2.61705 27.9426 3.15914 28.4408C3.70124 28.9389 4.43648 29.2188 5.20312 29.2188H23.7031C24.4698 29.2188 25.205 28.9389 25.7471 28.4408C26.2892 27.9426 26.5938 27.267 26.5938 26.5625V8.5H27.1719C27.6319 8.5 28.073 8.33209 28.3983 8.0332C28.7235 7.73432 28.9062 7.32894 28.9062 6.90625C28.9062 6.48356 28.7235 6.07818 28.3983 5.7793C28.073 5.48041 27.6319 5.3125 27.1719 5.3125ZM10.4062 3.71875C10.4062 3.57785 10.4672 3.44273 10.5756 3.3431C10.684 3.24347 10.831 3.1875 10.9844 3.1875H17.9219C18.0752 3.1875 18.2223 3.24347 18.3307 3.3431C18.4391 3.44273 18.5 3.57785 18.5 3.71875V5.3125H10.4062V3.71875ZM23.125 26.0312H5.78125V8.5H23.125V26.0312ZM12.7188 12.75V21.25C12.7188 21.6727 12.536 22.0781 12.2108 22.377C11.8855 22.6758 11.4444 22.8438 10.9844 22.8438C10.5244 22.8438 10.0832 22.6758 9.75799 22.377C9.43273 22.0781 9.25 21.6727 9.25 21.25V12.75C9.25 12.3273 9.43273 11.9219 9.75799 11.623C10.0832 11.3242 10.5244 11.1562 10.9844 11.1562C11.4444 11.1562 11.8855 11.3242 12.2108 11.623C12.536 11.9219 12.7188 12.3273 12.7188 12.75ZM19.6562 12.75V21.25C19.6562 21.6727 19.4735 22.0781 19.1483 22.377C18.823 22.6758 18.3819 22.8438 17.9219 22.8438C17.4619 22.8438 17.0207 22.6758 16.6955 22.377C16.3702 22.0781 16.1875 21.6727 16.1875 21.25V12.75C16.1875 12.3273 16.3702 11.9219 16.6955 11.623C17.0207 11.3242 17.4619 11.1562 17.9219 11.1562C18.3819 11.1562 18.823 11.3242 19.1483 11.623C19.4735 11.9219 19.6562 12.3273 19.6562 12.75Z" fill="#323232"/>
</svg>
