<svg width="18" height="19" viewBox="0 0 18 19" fill="none" xmlns="http://www.w3.org/2000/svg">
<path d="M15.8125 1.4375H13.6562V0.71875C13.6562 0.528126 13.5805 0.345309 13.4457 0.210517C13.3109 0.0757252 13.1281 0 12.9375 0C12.7469 0 12.5641 0.0757252 12.4293 0.210517C12.2945 0.345309 12.2188 0.528126 12.2188 0.71875V1.4375H5.03125V0.71875C5.03125 0.528126 4.95552 0.345309 4.82073 0.210517C4.68594 0.0757252 4.50312 0 4.3125 0C4.12188 0 3.93906 0.0757252 3.80427 0.210517C3.66948 0.345309 3.59375 0.528126 3.59375 0.71875V1.4375H1.4375C1.05625 1.4375 0.690617 1.58895 0.421034 1.85853C0.15145 2.12812 0 2.49375 0 2.875V17.25C0 17.6312 0.15145 17.9969 0.421034 18.2665C0.690617 18.536 1.05625 18.6875 1.4375 18.6875H15.8125C16.1937 18.6875 16.5594 18.536 16.829 18.2665C17.0985 17.9969 17.25 17.6312 17.25 17.25V2.875C17.25 2.49375 17.0985 2.12812 16.829 1.85853C16.5594 1.58895 16.1937 1.4375 15.8125 1.4375ZM3.59375 2.875V3.59375C3.59375 3.78437 3.66948 3.96719 3.80427 4.10198C3.93906 4.23677 4.12188 4.3125 4.3125 4.3125C4.50312 4.3125 4.68594 4.23677 4.82073 4.10198C4.95552 3.96719 5.03125 3.78437 5.03125 3.59375V2.875H12.2188V3.59375C12.2188 3.78437 12.2945 3.96719 12.4293 4.10198C12.5641 4.23677 12.7469 4.3125 12.9375 4.3125C13.1281 4.3125 13.3109 4.23677 13.4457 4.10198C13.5805 3.96719 13.6562 3.78437 13.6562 3.59375V2.875H15.8125V5.75H1.4375V2.875H3.59375ZM15.8125 17.25H1.4375V7.1875H15.8125V17.25ZM9.70312 10.4219C9.70312 10.6351 9.63989 10.8436 9.52143 11.0208C9.40296 11.1981 9.23458 11.3363 9.03758 11.4179C8.84058 11.4995 8.6238 11.5209 8.41467 11.4793C8.20553 11.4377 8.01343 11.335 7.86265 11.1842C7.71187 11.0334 7.60919 10.8413 7.56759 10.6322C7.52599 10.4231 7.54734 10.2063 7.62894 10.0093C7.71054 9.81229 7.84873 9.64391 8.02603 9.52545C8.20332 9.40698 8.41177 9.34375 8.625 9.34375C8.91094 9.34375 9.18516 9.45734 9.38735 9.65952C9.58954 9.86171 9.70312 10.1359 9.70312 10.4219ZM13.6562 10.4219C13.6562 10.6351 13.593 10.8436 13.4746 11.0208C13.3561 11.1981 13.1877 11.3363 12.9907 11.4179C12.7937 11.4995 12.5769 11.5209 12.3678 11.4793C12.1587 11.4377 11.9666 11.335 11.8158 11.1842C11.665 11.0334 11.5623 10.8413 11.5207 10.6322C11.4791 10.4231 11.5005 10.2063 11.5821 10.0093C11.6637 9.81229 11.8019 9.64391 11.9792 9.52545C12.1564 9.40698 12.3649 9.34375 12.5781 9.34375C12.8641 9.34375 13.1383 9.45734 13.3405 9.65952C13.5427 9.86171 13.6562 10.1359 13.6562 10.4219ZM5.75 14.0156C5.75 14.2289 5.68677 14.4373 5.5683 14.6146C5.44984 14.7919 5.28146 14.9301 5.08446 15.0117C4.88745 15.0933 4.67068 15.1146 4.46154 15.073C4.25241 15.0314 4.0603 14.9288 3.90953 14.778C3.75875 14.6272 3.65607 14.4351 3.61447 14.226C3.57287 14.0168 3.59422 13.8 3.67582 13.603C3.75742 13.406 3.8956 13.2377 4.0729 13.1192C4.2502 13.0007 4.45864 12.9375 4.67188 12.9375C4.95781 12.9375 5.23204 13.0511 5.43422 13.2533C5.63641 13.4555 5.75 13.7297 5.75 14.0156ZM9.70312 14.0156C9.70312 14.2289 9.63989 14.4373 9.52143 14.6146C9.40296 14.7919 9.23458 14.9301 9.03758 15.0117C8.84058 15.0933 8.6238 15.1146 8.41467 15.073C8.20553 15.0314 8.01343 14.9288 7.86265 14.778C7.71187 14.6272 7.60919 14.4351 7.56759 14.226C7.52599 14.0168 7.54734 13.8 7.62894 13.603C7.71054 13.406 7.84873 13.2377 8.02603 13.1192C8.20332 13.0007 8.41177 12.9375 8.625 12.9375C8.91094 12.9375 9.18516 13.0511 9.38735 13.2533C9.58954 13.4555 9.70312 13.7297 9.70312 14.0156ZM13.6562 14.0156C13.6562 14.2289 13.593 14.4373 13.4746 14.6146C13.3561 14.7919 13.1877 14.9301 12.9907 15.0117C12.7937 15.0933 12.5769 15.1146 12.3678 15.073C12.1587 15.0314 11.9666 14.9288 11.8158 14.778C11.665 14.6272 11.5623 14.4351 11.5207 14.226C11.4791 14.0168 11.5005 13.8 11.5821 13.603C11.6637 13.406 11.8019 13.2377 11.9792 13.1192C12.1564 13.0007 12.3649 12.9375 12.5781 12.9375C12.8641 12.9375 13.1383 13.0511 13.3405 13.2533C13.5427 13.4555 13.6562 13.7297 13.6562 14.0156Z" fill="black"/>
</svg>
