<svg width="13" height="15" viewBox="0 0 13 15" fill="none" xmlns="http://www.w3.org/2000/svg">
<path d="M6.05194 2.52164C4.85498 2.52164 3.6849 2.87658 2.68966 3.54158C1.69443 4.20657 0.918736 5.15175 0.460679 6.2576C0.00262222 7.36345 -0.117226 8.58029 0.116289 9.75425C0.349804 10.9282 0.926195 12.0066 1.77257 12.8529C2.61895 13.6993 3.6973 14.2757 4.87127 14.5092C6.04523 14.7427 7.26207 14.6229 8.36792 14.1648C9.47376 13.7068 10.4189 12.9311 11.0839 11.9359C11.7489 10.9406 12.1039 9.77054 12.1039 8.57358C12.102 6.96907 11.4638 5.4308 10.3293 4.29624C9.19472 3.16168 7.65645 2.52348 6.05194 2.52164ZM6.05194 13.1125C5.15422 13.1125 4.27666 12.8463 3.53023 12.3476C2.78381 11.8488 2.20204 11.1399 1.85849 10.3106C1.51495 9.48117 1.42507 8.56854 1.6002 7.68807C1.77534 6.8076 2.20763 5.99884 2.84242 5.36405C3.4772 4.72927 4.28596 4.29698 5.16643 4.12184C6.0469 3.9467 6.95954 4.03659 7.78892 4.38013C8.61831 4.72367 9.32719 5.30544 9.82594 6.05187C10.3247 6.7983 10.5909 7.67586 10.5909 8.57358C10.5896 9.77697 10.1109 10.9307 9.25999 11.7816C8.40906 12.6326 7.25534 13.1112 6.05194 13.1125ZM8.35231 6.02105C8.42283 6.09133 8.47879 6.17484 8.51697 6.26679C8.55515 6.35874 8.57481 6.45733 8.57481 6.55689C8.57481 6.65646 8.55515 6.75505 8.51697 6.847C8.47879 6.93895 8.42283 7.02246 8.35231 7.09274L6.58716 8.85789C6.44504 9.00001 6.25229 9.07985 6.05131 9.07985C5.85033 9.07985 5.65758 9.00001 5.51546 8.85789C5.37334 8.71577 5.29351 8.52302 5.29351 8.32204C5.29351 8.12106 5.37334 7.92831 5.51546 7.78619L7.28061 6.02105C7.35089 5.95052 7.4344 5.89456 7.52635 5.85638C7.61831 5.8182 7.71689 5.79855 7.81646 5.79855C7.91602 5.79855 8.01461 5.8182 8.10656 5.85638C8.19851 5.89456 8.28203 5.95052 8.35231 6.02105ZM3.78246 0.756492C3.78246 0.555858 3.86216 0.363441 4.00403 0.221571C4.1459 0.0797016 4.33832 0 4.53896 0H7.56492C7.76556 2.98968e-09 7.95797 0.0797016 8.09984 0.221571C8.24171 0.363441 8.32142 0.555858 8.32142 0.756492C8.32142 0.957126 8.24171 1.14954 8.09984 1.29141C7.95797 1.43328 7.76556 1.51298 7.56492 1.51298H4.53896C4.33832 1.51298 4.1459 1.43328 4.00403 1.29141C3.86216 1.14954 3.78246 0.957126 3.78246 0.756492Z" fill="black"/>
</svg>
