<svg width="25" height="25" viewBox="0 0 25 25" fill="none" xmlns="http://www.w3.org/2000/svg">
<path d="M20.3595 18.7022C20.5796 18.9224 20.7033 19.221 20.7033 19.5323C20.7033 19.8436 20.5796 20.1422 20.3595 20.3624C20.1393 20.5825 19.8407 20.7062 19.5294 20.7062C19.218 20.7062 18.9194 20.5825 18.6993 20.3624L12.4991 14.1602L6.29695 20.3604C6.0768 20.5806 5.77822 20.7043 5.46688 20.7043C5.15554 20.7043 4.85695 20.5806 4.6368 20.3604C4.41665 20.1403 4.29297 19.8417 4.29297 19.5304C4.29297 19.219 4.41665 18.9204 4.6368 18.7003L10.8389 12.5001L4.63875 6.29793C4.4186 6.07778 4.29492 5.77919 4.29492 5.46785C4.29492 5.15651 4.4186 4.85793 4.63875 4.63777C4.8589 4.41762 5.15749 4.29395 5.46883 4.29395C5.78017 4.29395 6.07876 4.41762 6.29891 4.63777L12.4991 10.8399L18.7012 4.6368C18.9214 4.41665 19.22 4.29297 19.5313 4.29297C19.8427 4.29297 20.1413 4.41665 20.3614 4.6368C20.5816 4.85695 20.7052 5.15554 20.7052 5.46688C20.7052 5.77822 20.5816 6.0768 20.3614 6.29695L14.1593 12.5001L20.3595 18.7022Z" fill="#7D7D7D"/>
</svg>
