<svg width="17" height="17" viewBox="0 0 17 17" fill="none" xmlns="http://www.w3.org/2000/svg">
<path d="M16.0665 14.4093C16.2866 14.6294 16.4103 14.928 16.4103 15.2393C16.4103 15.5507 16.2866 15.8493 16.0665 16.0694C15.8463 16.2896 15.5477 16.4132 15.2364 16.4132C14.9251 16.4132 14.6265 16.2896 14.4063 16.0694L8.20613 9.86727L2.00399 16.0675C1.78384 16.2876 1.48525 16.4113 1.17391 16.4113C0.862568 16.4113 0.56398 16.2876 0.34383 16.0675C0.123679 15.8473 4.63932e-09 15.5487 0 15.2374C-4.63932e-09 14.926 0.123679 14.6275 0.34383 14.4073L6.54598 8.20711L0.345783 2.00496C0.125632 1.78481 0.00195317 1.48622 0.00195317 1.17488C0.00195317 0.863545 0.125632 0.564957 0.345783 0.344806C0.565933 0.124656 0.864521 0.000976402 1.17586 0.000976399C1.4872 0.000976395 1.78579 0.124656 2.00594 0.344806L8.20613 6.54695L14.4083 0.343829C14.6284 0.123679 14.927 -5.18692e-09 15.2384 0C15.5497 5.18692e-09 15.8483 0.123679 16.0684 0.343829C16.2886 0.56398 16.4123 0.862568 16.4123 1.17391C16.4123 1.48525 16.2886 1.78384 16.0684 2.00399L9.86629 8.20711L16.0665 14.4093Z" fill="#7D7D7D"/>
</svg>
