<svg width="29" height="29" viewBox="0 0 29 29" fill="none" xmlns="http://www.w3.org/2000/svg">
<rect width="29" height="29" rx="5.37037" fill="black"/>
<path d="M14.5 6.48438C12.9147 6.48438 11.3649 6.95448 10.0468 7.83525C8.7286 8.71602 7.70122 9.96789 7.09453 11.4326C6.48785 12.8972 6.32911 14.5089 6.6384 16.0638C6.94768 17.6186 7.7111 19.0469 8.8321 20.1679C9.95311 21.2889 11.3814 22.0523 12.9362 22.3616C14.4911 22.6709 16.1028 22.5122 17.5674 21.9055C19.0321 21.2988 20.284 20.2714 21.1648 18.9532C22.0455 17.6351 22.5156 16.0853 22.5156 14.5C22.5133 12.3748 21.668 10.3374 20.1653 8.8347C18.6626 7.33199 16.6252 6.48673 14.5 6.48438ZM15.3906 20.6698V16.5781H16.875C17.1112 16.5781 17.3377 16.4843 17.5048 16.3173C17.6718 16.1502 17.7656 15.9237 17.7656 15.6875C17.7656 15.4513 17.6718 15.2248 17.5048 15.0577C17.3377 14.8907 17.1112 14.7969 16.875 14.7969H15.3906V13.3125C15.3906 13.0763 15.4845 12.8498 15.6515 12.6827C15.8185 12.5157 16.045 12.4219 16.2813 12.4219H17.4688C17.705 12.4219 17.9315 12.328 18.0985 12.161C18.2655 11.994 18.3594 11.7675 18.3594 11.5312C18.3594 11.295 18.2655 11.0685 18.0985 10.9015C17.9315 10.7345 17.705 10.6406 17.4688 10.6406H16.2813C15.5726 10.6406 14.893 10.9221 14.392 11.4232C13.8909 11.9243 13.6094 12.6039 13.6094 13.3125V14.7969H12.125C11.8888 14.7969 11.6623 14.8907 11.4952 15.0577C11.3282 15.2248 11.2344 15.4513 11.2344 15.6875C11.2344 15.9237 11.3282 16.1502 11.4952 16.3173C11.6623 16.4843 11.8888 16.5781 12.125 16.5781H13.6094V20.6698C12.0494 20.4446 10.6325 19.6369 9.64405 18.4093C8.65556 17.1816 8.16876 15.625 8.28164 14.0529C8.39451 12.4808 9.09867 11.0098 10.2524 9.93589C11.4062 8.86201 12.9238 8.265 14.5 8.265C16.0762 8.265 17.5939 8.86201 18.7476 9.93589C19.9013 11.0098 20.6055 12.4808 20.7184 14.0529C20.8312 15.625 20.3444 17.1816 19.356 18.4093C18.3675 19.6369 16.9506 20.4446 15.3906 20.6698Z" fill="white"/>
</svg>
