<svg width="29" height="29" viewBox="0 0 29 29" fill="none" xmlns="http://www.w3.org/2000/svg">
<rect width="29" height="29" rx="5.37037" fill="black"/>
<path d="M20.2704 10.7958C20.42 10.2628 20.4612 9.70522 20.3916 9.156C20.322 8.60679 20.143 8.07709 19.8653 7.59822C19.7968 7.4796 19.6983 7.3811 19.5797 7.31261C19.4611 7.24412 19.3266 7.20805 19.1896 7.20802C18.565 7.20627 17.9481 7.34574 17.3851 7.61602C16.822 7.88629 16.3273 8.28037 15.938 8.76879H14.6374C14.2481 8.28037 13.7534 7.88629 13.1903 7.61602C12.6272 7.34574 12.0104 7.20627 11.3858 7.20802C11.2488 7.20805 11.1143 7.24412 10.9957 7.31261C10.8771 7.3811 10.7786 7.4796 10.7101 7.59822C10.4323 8.07709 10.2534 8.60679 10.1838 9.156C10.1142 9.70522 10.1554 10.2628 10.3049 10.7958C9.9939 11.3721 9.82909 12.0159 9.82501 12.6707V13.191C9.82624 14.0644 10.12 14.9122 10.6594 15.5992C11.1987 16.2861 11.9527 16.7726 12.8009 16.981C12.5549 17.4111 12.4258 17.8981 12.4263 18.3935V18.6536H11.3858C11.0408 18.6536 10.71 18.5166 10.4661 18.2727C10.2222 18.0288 10.0851 17.6979 10.0851 17.353C10.0843 16.5944 9.78254 15.8671 9.24611 15.3306C8.70968 14.7942 7.98237 14.4925 7.22374 14.4916C7.01677 14.4916 6.81828 14.5738 6.67193 14.7202C6.52558 14.8665 6.44336 15.065 6.44336 15.272C6.44336 15.4789 6.52558 15.6774 6.67193 15.8238C6.81828 15.9701 7.01677 16.0524 7.22374 16.0524C7.56869 16.0524 7.89951 16.1894 8.14343 16.4333C8.38735 16.6772 8.52438 17.008 8.52438 17.353C8.52524 18.1116 8.82698 18.8389 9.36341 19.3754C9.89984 19.9118 10.6272 20.2135 11.3858 20.2144H12.4263V20.9948C12.4263 21.2017 12.5085 21.4002 12.6549 21.5466C12.8012 21.6929 12.9997 21.7752 13.2067 21.7752C13.4136 21.7752 13.6121 21.6929 13.7585 21.5466C13.9048 21.4002 13.9871 21.2017 13.9871 20.9948V18.3935C13.9871 18.0485 14.1241 17.7177 14.368 17.4738C14.6119 17.2299 14.9427 17.0929 15.2877 17.0929C15.6326 17.0929 15.9635 17.2299 16.2074 17.4738C16.4513 17.7177 16.5883 18.0485 16.5883 18.3935V20.9948C16.5883 21.2017 16.6705 21.4002 16.8169 21.5466C16.9632 21.6929 17.1617 21.7752 17.3687 21.7752C17.5757 21.7752 17.7742 21.6929 17.9205 21.5466C18.0669 21.4002 18.1491 21.2017 18.1491 20.9948V18.3935C18.1496 17.8981 18.0205 17.4111 17.7745 16.981C18.6227 16.7726 19.3766 16.2861 19.916 15.5992C20.4554 14.9122 20.7491 14.0644 20.7504 13.191V12.6707C20.7463 12.0159 20.5815 11.3721 20.2704 10.7958ZM19.1896 13.191C19.1896 13.8119 18.9429 14.4073 18.5039 14.8464C18.0648 15.2854 17.4694 15.5321 16.8485 15.5321H13.7269C13.106 15.5321 12.5105 15.2854 12.0715 14.8464C11.6324 14.4073 11.3858 13.8119 11.3858 13.191V12.6707C11.3924 12.2057 11.5307 11.752 11.7844 11.3623C11.8653 11.2575 11.9174 11.1334 11.9354 11.0023C11.9534 10.8712 11.9368 10.7377 11.8872 10.615C11.6633 10.0366 11.6541 9.39705 11.8612 8.81236C12.2116 8.87692 12.545 9.01304 12.8405 9.2122C13.136 9.41137 13.3873 9.66931 13.5787 9.96993C13.6492 10.0801 13.7463 10.1708 13.8611 10.2337C13.9759 10.2965 14.1046 10.3295 14.2355 10.3296H16.3393C16.4702 10.3296 16.5991 10.2967 16.714 10.2338C16.8289 10.171 16.9261 10.0802 16.9967 9.96993C17.188 9.66923 17.4392 9.41123 17.7348 9.21206C18.0303 9.01288 18.3637 8.87681 18.7142 8.81236C18.9213 9.39705 18.9121 10.0366 18.6882 10.615C18.6406 10.7386 18.6252 10.8723 18.6435 11.0035C18.6619 11.1347 18.7133 11.259 18.7929 11.3649C19.0456 11.754 19.1831 12.2067 19.1896 12.6707V13.191Z" fill="white"/>
</svg>
