<svg width="13" height="13" viewBox="0 0 13 13" fill="none" xmlns="http://www.w3.org/2000/svg">
<path d="M11.3306 6.36044C11.3306 6.51859 11.2678 6.67025 11.156 6.78208C11.0442 6.8939 10.8925 6.95673 10.7343 6.95673H1.98886C1.83072 6.95673 1.67905 6.8939 1.56723 6.78208C1.4554 6.67025 1.39258 6.51859 1.39258 6.36044C1.39258 6.2023 1.4554 6.05063 1.56723 5.93881C1.67905 5.82698 1.83072 5.76416 1.98886 5.76416H10.7343C10.8925 5.76416 11.0442 5.82698 11.156 5.93881C11.2678 6.05063 11.3306 6.2023 11.3306 6.36044ZM1.98886 3.77655H10.7343C10.8925 3.77655 11.0442 3.71373 11.156 3.6019C11.2678 3.49008 11.3306 3.33841 11.3306 3.18027C11.3306 3.02212 11.2678 2.87046 11.156 2.75863C11.0442 2.64681 10.8925 2.58398 10.7343 2.58398H1.98886C1.83072 2.58398 1.67905 2.64681 1.56723 2.75863C1.4554 2.87046 1.39258 3.02212 1.39258 3.18027C1.39258 3.33841 1.4554 3.49008 1.56723 3.6019C1.67905 3.71373 1.83072 3.77655 1.98886 3.77655ZM10.7343 8.94434H1.98886C1.83072 8.94434 1.67905 9.00716 1.56723 9.11898C1.4554 9.23081 1.39258 9.38247 1.39258 9.54062C1.39258 9.69876 1.4554 9.85043 1.56723 9.96225C1.67905 10.0741 1.83072 10.1369 1.98886 10.1369H10.7343C10.8925 10.1369 11.0442 10.0741 11.156 9.96225C11.2678 9.85043 11.3306 9.69876 11.3306 9.54062C11.3306 9.38247 11.2678 9.23081 11.156 9.11898C11.0442 9.00716 10.8925 8.94434 10.7343 8.94434Z" fill="white"/>
</svg>
