<svg width="13" height="13" viewBox="0 0 13 13" fill="none" xmlns="http://www.w3.org/2000/svg">
<path d="M11.6588 6.25693C11.6588 6.41507 11.5959 6.56674 11.4841 6.67856C11.3723 6.79039 11.2206 6.85321 11.0625 6.85321H2.31699C2.15884 6.85321 2.00718 6.79039 1.89535 6.67856C1.78353 6.56674 1.7207 6.41507 1.7207 6.25693C1.7207 6.09878 1.78353 5.94712 1.89535 5.83529C2.00718 5.72347 2.15884 5.66064 2.31699 5.66064H11.0625C11.2206 5.66064 11.3723 5.72347 11.4841 5.83529C11.5959 5.94712 11.6588 6.09878 11.6588 6.25693ZM2.31699 3.67303H11.0625C11.2206 3.67303 11.3723 3.61021 11.4841 3.49839C11.5959 3.38656 11.6588 3.2349 11.6588 3.07675C11.6588 2.91861 11.5959 2.76694 11.4841 2.65512C11.3723 2.54329 11.2206 2.48047 11.0625 2.48047H2.31699C2.15884 2.48047 2.00718 2.54329 1.89535 2.65512C1.78353 2.76694 1.7207 2.91861 1.7207 3.07675C1.7207 3.2349 1.78353 3.38656 1.89535 3.49839C2.00718 3.61021 2.15884 3.67303 2.31699 3.67303ZM11.0625 8.84082H2.31699C2.15884 8.84082 2.00718 8.90364 1.89535 9.01547C1.78353 9.12729 1.7207 9.27896 1.7207 9.4371C1.7207 9.59525 1.78353 9.74691 1.89535 9.85874C2.00718 9.97056 2.15884 10.0334 2.31699 10.0334H11.0625C11.2206 10.0334 11.3723 9.97056 11.4841 9.85874C11.5959 9.74691 11.6588 9.59525 11.6588 9.4371C11.6588 9.27896 11.5959 9.12729 11.4841 9.01547C11.3723 8.90364 11.2206 8.84082 11.0625 8.84082Z" fill="white"/>
</svg>
