<svg width="29" height="29" viewBox="0 0 29 29" fill="none" xmlns="http://www.w3.org/2000/svg">
<rect width="29" height="29" rx="5.37037" fill="black"/>
<path d="M21.625 8.26562H7.375C7.13879 8.26562 6.91226 8.35946 6.74523 8.52648C6.57821 8.69351 6.48438 8.92004 6.48438 9.15625V19.25C6.48438 19.6437 6.64076 20.0212 6.91914 20.2996C7.19751 20.578 7.57507 20.7344 7.96875 20.7344H21.0312C21.4249 20.7344 21.8025 20.578 22.0809 20.2996C22.3592 20.0212 22.5156 19.6437 22.5156 19.25V9.15625C22.5156 8.92004 22.4218 8.69351 22.2548 8.52648C22.0877 8.35946 21.8612 8.26562 21.625 8.26562ZM19.3354 10.0469L14.5 14.4792L9.66465 10.0469H19.3354ZM8.26562 18.9531V11.1809L13.8981 16.3443C14.0624 16.495 14.2771 16.5785 14.5 16.5785C14.7229 16.5785 14.9376 16.495 15.1019 16.3443L20.7344 11.1809V18.9531H8.26562Z" fill="white"/>
</svg>
