<svg width="29" height="29" viewBox="0 0 29 29" fill="none" xmlns="http://www.w3.org/2000/svg">
<path d="M25.8837 23.9923L20.5967 18.7031C22.1819 16.6374 22.922 14.046 22.6668 11.4547C22.4117 8.86338 21.1804 6.46613 19.2227 4.74925C17.2651 3.03237 14.7276 2.12442 12.1252 2.20959C9.5227 2.29477 7.05007 3.36668 5.20886 5.20789C3.36766 7.04909 2.29574 9.52173 2.21057 12.1242C2.1254 14.7267 3.03334 17.2641 4.75022 19.2217C6.4671 21.1794 8.86436 22.4107 11.4557 22.6658C14.047 22.921 16.6384 22.1809 18.7041 20.5957L23.9955 25.8882C24.1198 26.0125 24.2673 26.1111 24.4297 26.1783C24.5921 26.2456 24.7661 26.2802 24.9418 26.2802C25.1176 26.2802 25.2916 26.2456 25.4539 26.1783C25.6163 26.1111 25.7638 26.0125 25.8881 25.8882C26.0124 25.764 26.111 25.6164 26.1782 25.4541C26.2455 25.2917 26.2801 25.1177 26.2801 24.9419C26.2801 24.7662 26.2455 24.5922 26.1782 24.4298C26.111 24.2675 26.0124 24.1199 25.8881 23.9957L25.8837 23.9923ZM4.89941 12.4688C4.89941 10.9715 5.34341 9.50784 6.17524 8.26291C7.00708 7.01798 8.1894 6.04767 9.57269 5.47469C10.956 4.90171 12.4781 4.7518 13.9466 5.0439C15.4151 5.336 16.764 6.057 17.8227 7.11573C18.8815 8.17446 19.6025 9.52336 19.8946 10.9919C20.1867 12.4604 20.0368 13.9825 19.4638 15.3658C18.8908 16.7491 17.9205 17.9314 16.6756 18.7632C15.4306 19.5951 13.967 20.0391 12.4697 20.0391C10.4626 20.037 8.53825 19.2388 7.11899 17.8195C5.69972 16.4002 4.90148 14.4759 4.89941 12.4688Z" fill="#323232"/>
</svg>
