<svg width="16" height="9" viewBox="0 0 16 9" fill="none" xmlns="http://www.w3.org/2000/svg">
<path d="M14.8354 1.16729L8.00134 8.00134C7.93787 8.06489 7.8625 8.11529 7.77954 8.14968C7.69657 8.18408 7.60764 8.20178 7.51783 8.20178C7.42802 8.20178 7.3391 8.18408 7.25613 8.14968C7.17317 8.11529 7.0978 8.06489 7.03433 8.00134L0.200276 1.16729C0.0720414 1.03906 0 0.865136 0 0.683785C0 0.502434 0.0720414 0.32851 0.200276 0.200276C0.32851 0.072041 0.502434 0 0.683785 0C0.865136 0 1.03906 0.072041 1.16729 0.200276L7.51783 6.55167L13.8684 0.200276C13.9319 0.13678 14.0073 0.0864131 14.0902 0.0520497C14.1732 0.0176863 14.2621 0 14.3519 0C14.4417 0 14.5306 0.0176863 14.6136 0.0520497C14.6965 0.0864131 14.7719 0.13678 14.8354 0.200276C14.8989 0.263771 14.9493 0.339151 14.9836 0.422112C15.018 0.505072 15.0357 0.593989 15.0357 0.683785C15.0357 0.773581 15.018 0.862498 14.9836 0.945458C14.9493 1.02842 14.8989 1.1038 14.8354 1.16729Z" fill="black"/>
</svg>
