<svg width="19" height="9" viewBox="0 0 19 9" fill="none" xmlns="http://www.w3.org/2000/svg">
<path d="M11.1333 1.07839L4.08905 7.99683C3.97141 8.11254 3.81301 8.17739 3.648 8.17739C3.48299 8.17739 3.32459 8.11254 3.20695 7.99683L0.187992 5.03212C0.129092 4.9742 0.0821766 4.90525 0.0499246 4.8292C0.0176726 4.75315 0.000715712 4.67149 2.21719e-05 4.58888C-0.000671368 4.50628 0.0149119 4.42435 0.0458824 4.34776C0.0768529 4.27118 0.122604 4.20145 0.180524 4.14255C0.238443 4.08365 0.307397 4.03674 0.383448 4.00448C0.459499 3.97223 0.541157 3.95527 0.623762 3.95458C0.706366 3.95389 0.788298 3.96947 0.864879 4.00044C0.941461 4.03141 1.01119 4.07716 1.07009 4.13508L3.648 6.6666L10.252 0.180566C10.371 0.0635924 10.5317 -0.00129449 10.6986 0.000179893C10.7812 0.000909934 10.8629 0.01791 10.939 0.0502096C11.015 0.0825093 11.084 0.129476 11.1419 0.188428C11.1998 0.24738 11.2456 0.317163 11.2765 0.393792C11.3075 0.470422 11.323 0.552397 11.3223 0.635037C11.3216 0.717678 11.3046 0.799366 11.2723 0.875436C11.24 0.951507 11.193 1.02047 11.1341 1.07839H11.1333ZM18.6885 0.188428C18.6306 0.129432 18.5617 0.0824258 18.4856 0.0500981C18.4095 0.0177703 18.3278 0.000754705 18.2452 2.45418e-05C18.1625 -0.000705622 18.0805 0.0148637 18.0039 0.0458424C17.9273 0.0768212 17.8575 0.122602 17.7986 0.180566L11.1946 6.6666L9.71421 5.21216C9.59515 5.09529 9.43454 5.0305 9.26771 5.03205C9.10089 5.0336 8.94151 5.10135 8.82464 5.22041C8.70777 5.33947 8.64298 5.50008 8.64453 5.66691C8.64608 5.83373 8.71383 5.99311 8.83289 6.10998L10.7535 7.99683C10.8712 8.11254 11.0296 8.17739 11.1946 8.17739C11.3596 8.17739 11.518 8.11254 11.6356 7.99683L18.6799 1.07839C18.7389 1.02055 18.786 0.951634 18.8184 0.875588C18.8508 0.799542 18.8679 0.717857 18.8687 0.635202C18.8695 0.552547 18.854 0.470545 18.8231 0.393884C18.7922 0.317223 18.7464 0.247407 18.6885 0.188428Z" fill="black"/>
</svg>
