<svg width="18" height="18" viewBox="0 0 18 18" fill="none" xmlns="http://www.w3.org/2000/svg">
<path d="M8.53412 0C6.84623 0 5.19625 0.500517 3.79282 1.43826C2.38939 2.376 1.29555 3.70884 0.649625 5.26825C0.0036977 6.82766 -0.165306 8.54358 0.163984 10.199C0.493275 11.8545 1.30607 13.3751 2.49959 14.5686C3.69311 15.7622 5.21374 16.575 6.8692 16.9042C8.52465 17.2335 10.2406 17.0645 11.8 16.4186C13.3594 15.7727 14.6922 14.6788 15.63 13.2754C16.5677 11.872 17.0682 10.222 17.0682 8.53411C17.0658 6.27146 16.1659 4.10216 14.566 2.50222C12.9661 0.902284 10.7968 0.0023894 8.53412 0ZM15.7553 8.53411C15.757 10.2225 15.164 11.8576 14.0805 13.1524L3.91585 2.98694C4.9703 2.10971 6.25279 1.55095 7.61323 1.37603C8.97368 1.20111 10.3558 1.41727 11.5979 1.99922C12.8399 2.58117 13.8906 3.50484 14.6268 4.66213C15.3631 5.81942 15.7545 7.16247 15.7553 8.53411ZM1.31294 8.53411C1.31126 6.84573 1.90422 5.21067 2.98776 3.91585L13.1524 14.0813C12.0979 14.9585 10.8154 15.5173 9.455 15.6922C8.09456 15.8671 6.71244 15.651 5.47037 15.069C4.2283 14.4871 3.17766 13.5634 2.44141 12.4061C1.70515 11.2488 1.31373 9.90576 1.31294 8.53411Z" fill="#CF1515"/>
</svg>
