<svg width="19" height="18" viewBox="0 0 19 18" fill="none" xmlns="http://www.w3.org/2000/svg">
<path d="M16.0312 3.375H13.0625V2.8125C13.0625 2.36495 12.8748 1.93572 12.5408 1.61926C12.2067 1.30279 11.7537 1.125 11.2812 1.125H7.71875C7.24633 1.125 6.79326 1.30279 6.45922 1.61926C6.12517 1.93572 5.9375 2.36495 5.9375 2.8125V3.375H2.96875C2.81128 3.375 2.66026 3.43426 2.54891 3.53975C2.43756 3.64524 2.375 3.78832 2.375 3.9375C2.375 4.08668 2.43756 4.22976 2.54891 4.33525C2.66026 4.44074 2.81128 4.5 2.96875 4.5H3.5625V14.625C3.5625 14.9234 3.68761 15.2095 3.91031 15.4205C4.13301 15.6315 4.43506 15.75 4.75 15.75H14.25C14.5649 15.75 14.867 15.6315 15.0897 15.4205C15.3124 15.2095 15.4375 14.9234 15.4375 14.625V4.5H16.0312C16.1887 4.5 16.3397 4.44074 16.4511 4.33525C16.5624 4.22976 16.625 4.08668 16.625 3.9375C16.625 3.78832 16.5624 3.64524 16.4511 3.53975C16.3397 3.43426 16.1887 3.375 16.0312 3.375ZM7.125 2.8125C7.125 2.66332 7.18756 2.52024 7.29891 2.41475C7.41025 2.30926 7.56128 2.25 7.71875 2.25H11.2812C11.4387 2.25 11.5897 2.30926 11.7011 2.41475C11.8124 2.52024 11.875 2.66332 11.875 2.8125V3.375H7.125V2.8125ZM14.25 14.625H4.75V4.5H14.25V14.625ZM8.3125 7.3125V11.8125C8.3125 11.9617 8.24994 12.1048 8.13859 12.2102C8.02725 12.3157 7.87622 12.375 7.71875 12.375C7.56128 12.375 7.41025 12.3157 7.29891 12.2102C7.18756 12.1048 7.125 11.9617 7.125 11.8125V7.3125C7.125 7.16332 7.18756 7.02024 7.29891 6.91475C7.41025 6.80926 7.56128 6.75 7.71875 6.75C7.87622 6.75 8.02725 6.80926 8.13859 6.91475C8.24994 7.02024 8.3125 7.16332 8.3125 7.3125ZM11.875 7.3125V11.8125C11.875 11.9617 11.8124 12.1048 11.7011 12.2102C11.5897 12.3157 11.4387 12.375 11.2812 12.375C11.1238 12.375 10.9728 12.3157 10.8614 12.2102C10.7501 12.1048 10.6875 11.9617 10.6875 11.8125V7.3125C10.6875 7.16332 10.7501 7.02024 10.8614 6.91475C10.9728 6.80926 11.1238 6.75 11.2812 6.75C11.4387 6.75 11.5897 6.80926 11.7011 6.91475C11.8124 7.02024 11.875 7.16332 11.875 7.3125Z" fill="black"/>
</svg>
