<svg width="25" height="25" viewBox="0 0 25 25" fill="none" xmlns="http://www.w3.org/2000/svg">
<rect width="24.8342" height="24.8342" rx="4.59893" fill="white"/>
<rect x="0.323939" y="0.323939" width="24.1863" height="24.1863" rx="4.27499" stroke="black" stroke-opacity="0.15" stroke-width="0.647878"/>
<path d="M18.7253 6.43799H7.34291C7.10278 6.43799 6.87249 6.53338 6.70269 6.70318C6.53289 6.87298 6.4375 7.10327 6.4375 7.3434V16.6562C6.4375 16.8964 6.53289 17.1266 6.70269 17.2964C6.87249 17.4662 7.10278 17.5616 7.34291 17.5616H18.7253C18.9654 17.5616 19.1957 17.4662 19.3655 17.2964C19.5353 17.1266 19.6307 16.8964 19.6307 16.6562V7.3434C19.6307 7.10327 19.5353 6.87298 19.3655 6.70318C19.1957 6.53338 18.9654 6.43799 18.7253 6.43799ZM7.34291 7.21406H18.7253C18.7596 7.21406 18.7925 7.22768 18.8167 7.25194C18.841 7.2762 18.8546 7.3091 18.8546 7.3434V14.3002L16.9487 12.3943C16.8646 12.3102 16.7648 12.2435 16.655 12.198C16.5451 12.1525 16.4274 12.1291 16.3084 12.1291C16.1895 12.1291 16.0718 12.1525 15.9619 12.198C15.8521 12.2435 15.7523 12.3102 15.6682 12.3943L14.2829 13.7796L11.3461 10.8422C11.2621 10.7581 11.1622 10.6914 11.0524 10.6459C10.9425 10.6004 10.8248 10.577 10.7059 10.577C10.587 10.577 10.4692 10.6004 10.3594 10.6459C10.2495 10.6914 10.1497 10.7581 10.0656 10.8422L7.21357 13.6942V7.3434C7.21357 7.3091 7.2272 7.2762 7.25145 7.25194C7.27571 7.22768 7.30861 7.21406 7.34291 7.21406ZM7.21357 16.6562V14.7917L10.614 11.3912C10.6261 11.3791 10.6404 11.3695 10.6561 11.3629C10.6719 11.3564 10.6888 11.353 10.7059 11.353C10.723 11.353 10.7399 11.3564 10.7556 11.3629C10.7714 11.3695 10.7857 11.3791 10.7977 11.3912L16.192 16.7856H7.34291C7.30861 16.7856 7.27571 16.7719 7.25145 16.7477C7.2272 16.7234 7.21357 16.6905 7.21357 16.6562ZM18.7253 16.7856H17.2895L14.832 14.328L16.2166 12.9427C16.2286 12.9307 16.2429 12.9212 16.2586 12.9147C16.2743 12.9082 16.2911 12.9048 16.3081 12.9048C16.3251 12.9048 16.342 12.9082 16.3577 12.9147C16.3734 12.9212 16.3876 12.9307 16.3996 12.9427L18.8572 15.4003V16.6562C18.8572 16.6734 18.8538 16.6905 18.8471 16.7063C18.8404 16.7222 18.8307 16.7366 18.8184 16.7486C18.8061 16.7607 18.7915 16.7701 18.7755 16.7765C18.7596 16.7828 18.7425 16.7859 18.7253 16.7856ZM14.1982 10.189C14.1982 10.0611 14.2361 9.93604 14.3072 9.82969C14.3782 9.72333 14.4792 9.64044 14.5974 9.59149C14.7156 9.54254 14.8456 9.52974 14.9711 9.55469C15.0965 9.57964 15.2118 9.64124 15.3022 9.73168C15.3927 9.82213 15.4543 9.93736 15.4792 10.0628C15.5042 10.1883 15.4914 10.3183 15.4424 10.4365C15.3935 10.5547 15.3106 10.6557 15.2042 10.7267C15.0979 10.7978 14.9728 10.8357 14.8449 10.8357C14.6734 10.8357 14.5089 10.7676 14.3876 10.6463C14.2663 10.525 14.1982 10.3605 14.1982 10.189Z" fill="#FF0000"/>
</svg>
