<svg width="32" height="32" viewBox="0 0 32 32" fill="none" xmlns="http://www.w3.org/2000/svg">
<path d="M24.5 14C24.8956 14 25.2822 14.1173 25.6111 14.3371C25.94 14.5568 26.1964 14.8692 26.3478 15.2346C26.4991 15.6001 26.5387 16.0022 26.4616 16.3902C26.3844 16.7781 26.1939 17.1345 25.9142 17.4142C25.6345 17.6939 25.2781 17.8844 24.8902 17.9616C24.5022 18.0387 24.1001 17.9991 23.7346 17.8478C23.3692 17.6964 23.0568 17.44 22.8371 17.1111C22.6173 16.7822 22.5 16.3956 22.5 16C22.5 15.4696 22.7107 14.9609 23.0858 14.5858C23.4609 14.2107 23.9696 14 24.5 14ZM18 16C18 15.6044 17.8827 15.2178 17.6629 14.8889C17.4432 14.56 17.1308 14.3036 16.7654 14.1522C16.3999 14.0009 15.9978 13.9613 15.6098 14.0384C15.2219 14.1156 14.8655 14.3061 14.5858 14.5858C14.3061 14.8655 14.1156 15.2219 14.0384 15.6098C13.9613 15.9978 14.0009 16.3999 14.1522 16.7654C14.3036 17.1308 14.56 17.4432 14.8889 17.6629C15.2178 17.8827 15.6044 18 16 18C16.5304 18 17.0391 17.7893 17.4142 17.4142C17.7893 17.0391 18 16.5304 18 16ZM9.5 16C9.5 15.6044 9.3827 15.2178 9.16294 14.8889C8.94317 14.56 8.63082 14.3036 8.26537 14.1522C7.89991 14.0009 7.49778 13.9613 7.10982 14.0384C6.72186 14.1156 6.36549 14.3061 6.08578 14.5858C5.80608 14.8655 5.6156 15.2219 5.53843 15.6098C5.46126 15.9978 5.50086 16.3999 5.65224 16.7654C5.80361 17.1308 6.05996 17.4432 6.38886 17.6629C6.71776 17.8827 7.10444 18 7.5 18C8.03043 18 8.53914 17.7893 8.91421 17.4142C9.28928 17.0391 9.5 16.5304 9.5 16Z" fill="black"/>
</svg>
