<svg width="235" height="64" viewBox="0 0 235 64" fill="none" xmlns="http://www.w3.org/2000/svg">
<path d="M3.77993 51V12.6768H28.705V18.4964H10.7223V28.9005H27.4138V34.7201H10.7223V45.1804H28.8547V51H3.77993ZM67.2808 12.6768V51H61.1057L43.0481 24.8961H42.73V51H35.7877V12.6768H42.0002L60.0391 38.7994H60.3759V12.6768H67.2808ZM78.7188 51.4117C77.5836 51.4117 76.6105 51.0125 75.7997 50.2141C74.9888 49.4157 74.5896 48.4426 74.6021 47.2949C74.5896 46.1722 74.9888 45.2116 75.7997 44.4132C76.6105 43.6148 77.5836 43.2156 78.7188 43.2156C79.8166 43.2156 80.771 43.6148 81.5818 44.4132C82.4052 45.2116 82.8231 46.1722 82.8356 47.2949C82.8231 48.0559 82.6235 48.7483 82.2368 49.372C81.8625 49.9958 81.3635 50.4948 80.7398 50.869C80.1285 51.2308 79.4548 51.4117 78.7188 51.4117Z" fill="black"/>
<path d="M98.1939 51L87.378 12.6768H94.8443L101.749 40.8391H102.105L109.477 12.6768H116.27L123.662 40.8578H123.998L130.903 12.6768H138.37L127.554 51H120.705L113.033 24.1101H112.733L105.043 51H98.1939Z" fill="#8D8D8D"/>
<path d="M152.614 57H148.685L155.839 36.6771H160.384L167.549 57H163.619L158.191 40.8449H158.032L152.614 57ZM152.743 49.0316H163.46V51.9887H152.743V49.0316ZM175.259 57.2679C174.062 57.2679 172.99 56.9603 172.044 56.3451C171.098 55.7298 170.351 54.8367 169.801 53.6658C169.252 52.4948 168.978 51.0725 168.978 49.3988C168.978 47.7052 169.256 46.2762 169.811 45.1119C170.374 43.9409 171.131 43.0578 172.084 42.4624C173.036 41.8604 174.098 41.5594 175.269 41.5594C176.162 41.5594 176.897 41.7115 177.472 42.0158C178.048 42.3135 178.504 42.6741 178.842 43.0975C179.179 43.5142 179.44 43.9079 179.626 44.2783H179.774V36.6771H183.377V57H179.844V54.5986H179.626C179.44 54.969 179.172 55.3627 178.822 55.7794C178.471 56.1896 178.008 56.5402 177.432 56.8313C176.857 57.1224 176.133 57.2679 175.259 57.2679ZM176.262 54.3207C177.022 54.3207 177.671 54.1156 178.207 53.7055C178.742 53.2887 179.149 52.7098 179.427 51.9689C179.705 51.2279 179.844 50.3646 179.844 49.3789C179.844 48.3932 179.705 47.5365 179.427 46.8088C179.156 46.0811 178.752 45.5154 178.216 45.1119C177.687 44.7083 177.036 44.5066 176.262 44.5066C175.461 44.5066 174.793 44.715 174.257 45.1317C173.721 45.5485 173.318 46.1241 173.046 46.8584C172.775 47.5927 172.64 48.4329 172.64 49.3789C172.64 50.3315 172.775 51.1816 173.046 51.9292C173.324 52.6701 173.731 53.2556 174.267 53.6856C174.809 54.109 175.474 54.3207 176.262 54.3207ZM187.204 57V41.7578H190.638V44.3478H190.817C191.134 43.4745 191.66 42.7931 192.394 42.3036C193.129 41.8074 194.005 41.5594 195.024 41.5594C196.056 41.5594 196.926 41.8107 197.634 42.3135C198.348 42.8097 198.851 43.4878 199.142 44.3478H199.301C199.638 43.501 200.207 42.8262 201.008 42.3234C201.815 41.814 202.771 41.5594 203.876 41.5594C205.278 41.5594 206.423 42.0026 207.309 42.8891C208.196 43.7756 208.639 45.0689 208.639 46.7691V57H205.037V47.3248C205.037 46.3788 204.785 45.6874 204.282 45.2508C203.78 44.8076 203.164 44.586 202.437 44.586C201.57 44.586 200.892 44.8572 200.402 45.3997C199.92 45.9355 199.678 46.6335 199.678 47.4935V57H196.155V47.1759C196.155 46.3887 195.917 45.7602 195.441 45.2905C194.971 44.8208 194.356 44.586 193.595 44.586C193.079 44.586 192.609 44.7183 192.186 44.9829C191.763 45.2409 191.425 45.6081 191.174 46.0844C190.922 46.5541 190.797 47.1032 190.797 47.7316V57H187.204ZM212.283 57V41.7578H215.875V57H212.283ZM214.089 39.5945C213.52 39.5945 213.031 39.406 212.621 39.0289C212.21 38.6452 212.005 38.1854 212.005 37.6496C212.005 37.1071 212.21 36.6473 212.621 36.2702C213.031 35.8865 213.52 35.6947 214.089 35.6947C214.665 35.6947 215.154 35.8865 215.558 36.2702C215.968 36.6473 216.173 37.1071 216.173 37.6496C216.173 38.1854 215.968 38.6452 215.558 39.0289C215.154 39.406 214.665 39.5945 214.089 39.5945ZM223.162 48.069V57H219.569V41.7578H223.003V44.3478H223.181C223.532 43.4944 224.091 42.8163 224.858 42.3135C225.632 41.8107 226.588 41.5594 227.726 41.5594C228.778 41.5594 229.694 41.7843 230.475 42.2341C231.262 42.684 231.871 43.3356 232.301 44.189C232.738 45.0424 232.953 46.0778 232.946 47.295V57H229.354V47.8507C229.354 46.8319 229.089 46.0348 228.56 45.4592C228.037 44.8837 227.313 44.5959 226.387 44.5959C225.758 44.5959 225.199 44.7348 224.71 45.0127C224.227 45.2839 223.846 45.6775 223.568 46.1935C223.297 46.7095 223.162 47.3347 223.162 48.069Z" fill="black"/>
</svg>
